<?xml version="1.0" encoding="UTF-8" standalone="no"?>
<!-- Created with Inkscape (http://www.inkscape.org/) -->

<svg
   width="120"
   height="120"
   viewBox="0 0 120 120"
   version="1.1"
   id="svg5"
   inkscape:version="1.2 (dc2aedaf03, 2022-05-15)"
   sodipodi:docname="icon_large.svg"
   xmlns:inkscape="http://www.inkscape.org/namespaces/inkscape"
   xmlns:sodipodi="http://sodipodi.sourceforge.net/DTD/sodipodi-0.dtd"
   xmlns="http://www.w3.org/2000/svg"
   xmlns:svg="http://www.w3.org/2000/svg">
  <sodipodi:namedview
     id="namedview7"
     pagecolor="#ffffff"
     bordercolor="#666666"
     borderopacity="1.0"
     inkscape:showpageshadow="2"
     inkscape:pageopacity="0"
     inkscape:pagecheckerboard="0"
     inkscape:deskcolor="#d1d1d1"
     inkscape:document-units="px"
     showgrid="true"
     inkscape:zoom="5.6568542"
     inkscape:cx="69.56163"
     inkscape:cy="58.689863"
     inkscape:window-width="1920"
     inkscape:window-height="1015"
     inkscape:window-x="0"
     inkscape:window-y="37"
     inkscape:window-maximized="1"
     inkscape:current-layer="layer1">
    <inkscape:grid
       type="xygrid"
       id="grid1776"
       empspacing="8" />
  </sodipodi:namedview>
  <defs
     id="defs2" />
  <g
     inkscape:label="Ebene 1"
     inkscape:groupmode="layer"
     id="layer1">
    <path
       id="rect2479"
       style="fill:#405aff;fill-opacity:1;fill-rule:evenodd;stroke:none;stroke-width:0;stroke-linecap:round;stroke-linejoin:round;stroke-dasharray:none"
       d="M 20 24 C 17.784022 24 16 25.784022 16 28 L 16 40 L 104 40 L 104 28 C 104 25.784022 102.216 24 100 24 L 20 24 z M 24 25 A 3 3 0 0 1 27 28 A 3 3 0 0 1 24 31 A 3 3 0 0 1 21 28 A 3 3 0 0 1 24 25 z M 32 25 A 3 3 0 0 1 35 28 A 3 3 0 0 1 32 31 A 3 3 0 0 1 29 28 A 3 3 0 0 1 32 25 z M 40 25 A 3 3 0 0 1 43 28 A 3 3 0 0 1 40 31 A 3 3 0 0 1 37 28 A 3 3 0 0 1 40 25 z M 48 25 A 3 3 0 0 1 51 28 A 3 3 0 0 1 48 31 A 3 3 0 0 1 45 28 A 3 3 0 0 1 48 25 z M 56 25 A 3 3 0 0 1 59 28 A 3 3 0 0 1 56 31 A 3 3 0 0 1 53 28 A 3 3 0 0 1 56 25 z M 64 25 A 3 3 0 0 1 67 28 A 3 3 0 0 1 64 31 A 3 3 0 0 1 61 28 A 3 3 0 0 1 64 25 z M 72 25 A 3 3 0 0 1 75 28 A 3 3 0 0 1 72 31 A 3 3 0 0 1 69 28 A 3 3 0 0 1 72 25 z M 80 25 A 3 3 0 0 1 83 28 A 3 3 0 0 1 80 31 A 3 3 0 0 1 77 28 A 3 3 0 0 1 80 25 z M 88 25 A 3 3 0 0 1 91 28 A 3 3 0 0 1 88 31 A 3 3 0 0 1 85 28 A 3 3 0 0 1 88 25 z M 96 25 A 3 3 0 0 1 99 28 A 3 3 0 0 1 96 31 A 3 3 0 0 1 93 28 A 3 3 0 0 1 96 25 z " />
    <path
       id="rect2479-4"
       style="fill:#ffffff;fill-opacity:1;fill-rule:evenodd;stroke:none;stroke-width:0;stroke-linecap:round;stroke-linejoin:round;stroke-dasharray:none"
       d="M 16 40 L 16 100 C 16 102.216 17.784002 104 20 104 L 100 104 C 102.216 104 104 102.216 104 100 L 104 40 L 16 40 z " />
    <path
       style="fill:none;stroke:#ffffff;stroke-width:4;stroke-linecap:round;stroke-linejoin:miter;stroke-dasharray:none;stroke-opacity:1"
       d="M 32,28 V 20"
       id="path3251"
       sodipodi:nodetypes="cc" />
    <path
       style="fill:none;stroke:#ffffff;stroke-width:4;stroke-linecap:round;stroke-linejoin:miter;stroke-dasharray:none;stroke-opacity:1"
       d="M 24,28 V 20"
       id="path3251-0"
       sodipodi:nodetypes="cc" />
    <path
       style="fill:none;stroke:#ffffff;stroke-width:4;stroke-linecap:round;stroke-linejoin:miter;stroke-dasharray:none;stroke-opacity:1"
       d="M 40,28 V 20"
       id="path3251-5"
       sodipodi:nodetypes="cc" />
    <path
       style="fill:none;stroke:#ffffff;stroke-width:4;stroke-linecap:round;stroke-linejoin:miter;stroke-dasharray:none;stroke-opacity:1"
       d="M 48,28 V 20"
       id="path3251-8"
       sodipodi:nodetypes="cc" />
    <path
       style="fill:none;stroke:#ffffff;stroke-width:4;stroke-linecap:round;stroke-linejoin:miter;stroke-dasharray:none;stroke-opacity:1"
       d="M 56,28 V 20"
       id="path3251-83"
       sodipodi:nodetypes="cc" />
    <path
       style="fill:none;stroke:#ffffff;stroke-width:4;stroke-linecap:round;stroke-linejoin:miter;stroke-dasharray:none;stroke-opacity:1"
       d="M 64,28 V 20"
       id="path3251-9"
       sodipodi:nodetypes="cc" />
    <path
       style="fill:none;stroke:#ffffff;stroke-width:4;stroke-linecap:round;stroke-linejoin:miter;stroke-dasharray:none;stroke-opacity:1"
       d="M 72,28 V 20"
       id="path3251-09"
       sodipodi:nodetypes="cc" />
    <path
       style="fill:none;stroke:#ffffff;stroke-width:4;stroke-linecap:round;stroke-linejoin:miter;stroke-dasharray:none;stroke-opacity:1"
       d="M 80,28 V 20"
       id="path3251-84"
       sodipodi:nodetypes="cc" />
    <path
       style="fill:none;stroke:#ffffff;stroke-width:4;stroke-linecap:round;stroke-linejoin:miter;stroke-dasharray:none;stroke-opacity:1"
       d="M 88,28 V 20"
       id="path3251-93"
       sodipodi:nodetypes="cc" />
    <path
       style="fill:none;stroke:#ffffff;stroke-width:4;stroke-linecap:round;stroke-linejoin:miter;stroke-dasharray:none;stroke-opacity:1"
       d="M 96,28 V 20"
       id="path3251-6"
       sodipodi:nodetypes="cc" />
    <rect
       style="fill:#aeb0be;fill-opacity:1;fill-rule:evenodd;stroke:none;stroke-width:0;stroke-linecap:round;stroke-linejoin:round;stroke-dasharray:none;stroke-opacity:1"
       id="rect4255"
       width="16"
       height="8"
       x="24"
       y="48" />
    <rect
       style="fill:#aeb0be;fill-opacity:1;fill-rule:evenodd;stroke:none;stroke-width:0;stroke-linecap:round;stroke-linejoin:round;stroke-dasharray:none;stroke-opacity:1"
       id="rect4257"
       width="20"
       height="8"
       x="24"
       y="60" />
    <rect
       style="fill:#aeb0be;fill-opacity:1;fill-rule:evenodd;stroke:none;stroke-width:0;stroke-linecap:round;stroke-linejoin:round;stroke-dasharray:none;stroke-opacity:1"
       id="rect4257-2"
       width="20"
       height="8"
       x="76"
       y="84" />
    <rect
       style="fill:#aeb0be;fill-opacity:1;fill-rule:evenodd;stroke:none;stroke-width:0;stroke-linecap:round;stroke-linejoin:round;stroke-dasharray:none;stroke-opacity:1"
       id="rect4257-5"
       width="20"
       height="8"
       x="48"
       y="48" />
    <rect
       style="fill:#aeb0be;fill-opacity:1;fill-rule:evenodd;stroke:none;stroke-width:0;stroke-linecap:round;stroke-linejoin:round;stroke-dasharray:none;stroke-opacity:1"
       id="rect4259"
       width="16"
       height="8"
       x="24"
       y="72" />
    <rect
       style="fill:#aeb0be;fill-opacity:1;fill-rule:evenodd;stroke:none;stroke-width:0;stroke-linecap:round;stroke-linejoin:round;stroke-dasharray:none;stroke-opacity:1"
       id="rect4259-0"
       width="16"
       height="8"
       x="48"
       y="84" />
    <rect
       style="fill:#aeb0be;fill-opacity:1;fill-rule:evenodd;stroke:none;stroke-width:0;stroke-linecap:round;stroke-linejoin:round;stroke-dasharray:none;stroke-opacity:1"
       id="rect4259-11"
       width="16"
       height="8"
       x="80"
       y="48" />
    <rect
       style="fill:#aeb0be;fill-opacity:1;fill-rule:evenodd;stroke:none;stroke-width:0;stroke-linecap:round;stroke-linejoin:round;stroke-dasharray:none;stroke-opacity:1"
       id="rect4259-3"
       width="16"
       height="8"
       x="80"
       y="60" />
    <rect
       style="fill:#aeb0be;fill-opacity:1;fill-rule:evenodd;stroke:none;stroke-width:0;stroke-linecap:round;stroke-linejoin:round;stroke-dasharray:none;stroke-opacity:1"
       id="rect4259-1"
       width="16"
       height="8"
       x="56"
       y="60" />
    <rect
       style="fill:#aeb0be;fill-opacity:1;fill-rule:evenodd;stroke:none;stroke-width:0;stroke-linecap:round;stroke-linejoin:round;stroke-dasharray:none;stroke-opacity:1"
       id="rect4261"
       width="12"
       height="8"
       x="24"
       y="84" />
    <rect
       style="fill:#aeb0be;fill-opacity:1;fill-rule:evenodd;stroke:none;stroke-width:0;stroke-linecap:round;stroke-linejoin:round;stroke-dasharray:none;stroke-opacity:1"
       id="rect4261-5"
       width="12"
       height="8"
       x="44"
       y="72" />
    <rect
       style="fill:#aeb0be;fill-opacity:1;fill-rule:evenodd;stroke:none;stroke-width:0;stroke-linecap:round;stroke-linejoin:round;stroke-dasharray:none;stroke-opacity:1"
       id="rect4261-7"
       width="12"
       height="8"
       x="64"
       y="72" />
    <rect
       style="fill:#aeb0be;fill-opacity:1;fill-rule:evenodd;stroke:none;stroke-width:0;stroke-linecap:round;stroke-linejoin:round;stroke-dasharray:none;stroke-opacity:1"
       id="rect4261-8"
       width="12"
       height="8"
       x="84"
       y="72" />
  </g>
</svg>
