<?xml version="1.0" encoding="UTF-8" standalone="no"?><svg width="120" height="120" viewBox="0 0 120 120" version="1.1" xmlns="http://www.w3.org/2000/svg" xmlns:svg="http://www.w3.org/2000/svg"><defs/><g><path style="fill:#405aff;fill-opacity:1;fill-rule:evenodd;stroke:none;stroke-width:0;stroke-linecap:round;stroke-linejoin:round;stroke-dasharray:none" d="M 20 24 C 17.784022 24 16 25.784022 16 28 L 16 40 L 104 40 L 104 28 C 104 25.784022 102.216 24 100 24 L 20 24 z M 24 25 A 3 3 0 0 1 27 28 A 3 3 0 0 1 24 31 A 3 3 0 0 1 21 28 A 3 3 0 0 1 24 25 z M 32 25 A 3 3 0 0 1 35 28 A 3 3 0 0 1 32 31 A 3 3 0 0 1 29 28 A 3 3 0 0 1 32 25 z M 40 25 A 3 3 0 0 1 43 28 A 3 3 0 0 1 40 31 A 3 3 0 0 1 37 28 A 3 3 0 0 1 40 25 z M 48 25 A 3 3 0 0 1 51 28 A 3 3 0 0 1 48 31 A 3 3 0 0 1 45 28 A 3 3 0 0 1 48 25 z M 56 25 A 3 3 0 0 1 59 28 A 3 3 0 0 1 56 31 A 3 3 0 0 1 53 28 A 3 3 0 0 1 56 25 z M 64 25 A 3 3 0 0 1 67 28 A 3 3 0 0 1 64 31 A 3 3 0 0 1 61 28 A 3 3 0 0 1 64 25 z M 72 25 A 3 3 0 0 1 75 28 A 3 3 0 0 1 72 31 A 3 3 0 0 1 69 28 A 3 3 0 0 1 72 25 z M 80 25 A 3 3 0 0 1 83 28 A 3 3 0 0 1 80 31 A 3 3 0 0 1 77 28 A 3 3 0 0 1 80 25 z M 88 25 A 3 3 0 0 1 91 28 A 3 3 0 0 1 88 31 A 3 3 0 0 1 85 28 A 3 3 0 0 1 88 25 z M 96 25 A 3 3 0 0 1 99 28 A 3 3 0 0 1 96 31 A 3 3 0 0 1 93 28 A 3 3 0 0 1 96 25 z "/><path style="fill:#ffffff;fill-opacity:1;fill-rule:evenodd;stroke:none;stroke-width:0;stroke-linecap:round;stroke-linejoin:round;stroke-dasharray:none" d="M 16 40 L 16 100 C 16 102.216 17.784002 104 20 104 L 100 104 C 102.216 104 104 102.216 104 100 L 104 40 L 16 40 z "/><path style="fill:none;stroke:#ffffff;stroke-width:4;stroke-linecap:round;stroke-linejoin:miter;stroke-dasharray:none;stroke-opacity:1" d="M 32,28 V 20"/><path style="fill:none;stroke:#ffffff;stroke-width:4;stroke-linecap:round;stroke-linejoin:miter;stroke-dasharray:none;stroke-opacity:1" d="M 24,28 V 20"/><path style="fill:none;stroke:#ffffff;stroke-width:4;stroke-linecap:round;stroke-linejoin:miter;stroke-dasharray:none;stroke-opacity:1" d="M 40,28 V 20"/><path style="fill:none;stroke:#ffffff;stroke-width:4;stroke-linecap:round;stroke-linejoin:miter;stroke-dasharray:none;stroke-opacity:1" d="M 48,28 V 20"/><path style="fill:none;stroke:#ffffff;stroke-width:4;stroke-linecap:round;stroke-linejoin:miter;stroke-dasharray:none;stroke-opacity:1" d="M 56,28 V 20"/><path style="fill:none;stroke:#ffffff;stroke-width:4;stroke-linecap:round;stroke-linejoin:miter;stroke-dasharray:none;stroke-opacity:1" d="M 64,28 V 20"/><path style="fill:none;stroke:#ffffff;stroke-width:4;stroke-linecap:round;stroke-linejoin:miter;stroke-dasharray:none;stroke-opacity:1" d="M 72,28 V 20"/><path style="fill:none;stroke:#ffffff;stroke-width:4;stroke-linecap:round;stroke-linejoin:miter;stroke-dasharray:none;stroke-opacity:1" d="M 80,28 V 20"/><path style="fill:none;stroke:#ffffff;stroke-width:4;stroke-linecap:round;stroke-linejoin:miter;stroke-dasharray:none;stroke-opacity:1" d="M 88,28 V 20"/><path style="fill:none;stroke:#ffffff;stroke-width:4;stroke-linecap:round;stroke-linejoin:miter;stroke-dasharray:none;stroke-opacity:1" d="M 96,28 V 20"/><rect style="fill:#aeb0be;fill-opacity:1;fill-rule:evenodd;stroke:none;stroke-width:0;stroke-linecap:round;stroke-linejoin:round;stroke-dasharray:none;stroke-opacity:1" width="16" height="8" x="24" y="48"/><rect style="fill:#aeb0be;fill-opacity:1;fill-rule:evenodd;stroke:none;stroke-width:0;stroke-linecap:round;stroke-linejoin:round;stroke-dasharray:none;stroke-opacity:1" width="20" height="8" x="24" y="60"/><rect style="fill:#aeb0be;fill-opacity:1;fill-rule:evenodd;stroke:none;stroke-width:0;stroke-linecap:round;stroke-linejoin:round;stroke-dasharray:none;stroke-opacity:1" width="20" height="8" x="76" y="84"/><rect style="fill:#aeb0be;fill-opacity:1;fill-rule:evenodd;stroke:none;stroke-width:0;stroke-linecap:round;stroke-linejoin:round;stroke-dasharray:none;stroke-opacity:1" width="20" height="8" x="48" y="48"/><rect style="fill:#aeb0be;fill-opacity:1;fill-rule:evenodd;stroke:none;stroke-width:0;stroke-linecap:round;stroke-linejoin:round;stroke-dasharray:none;stroke-opacity:1" width="16" height="8" x="24" y="72"/><rect style="fill:#aeb0be;fill-opacity:1;fill-rule:evenodd;stroke:none;stroke-width:0;stroke-linecap:round;stroke-linejoin:round;stroke-dasharray:none;stroke-opacity:1" width="16" height="8" x="48" y="84"/><rect style="fill:#aeb0be;fill-opacity:1;fill-rule:evenodd;stroke:none;stroke-width:0;stroke-linecap:round;stroke-linejoin:round;stroke-dasharray:none;stroke-opacity:1" width="16" height="8" x="80" y="48"/><rect style="fill:#aeb0be;fill-opacity:1;fill-rule:evenodd;stroke:none;stroke-width:0;stroke-linecap:round;stroke-linejoin:round;stroke-dasharray:none;stroke-opacity:1" width="16" height="8" x="80" y="60"/><rect style="fill:#aeb0be;fill-opacity:1;fill-rule:evenodd;stroke:none;stroke-width:0;stroke-linecap:round;stroke-linejoin:round;stroke-dasharray:none;stroke-opacity:1" width="16" height="8" x="56" y="60"/><rect style="fill:#aeb0be;fill-opacity:1;fill-rule:evenodd;stroke:none;stroke-width:0;stroke-linecap:round;stroke-linejoin:round;stroke-dasharray:none;stroke-opacity:1" width="12" height="8" x="24" y="84"/><rect style="fill:#aeb0be;fill-opacity:1;fill-rule:evenodd;stroke:none;stroke-width:0;stroke-linecap:round;stroke-linejoin:round;stroke-dasharray:none;stroke-opacity:1" width="12" height="8" x="44" y="72"/><rect style="fill:#aeb0be;fill-opacity:1;fill-rule:evenodd;stroke:none;stroke-width:0;stroke-linecap:round;stroke-linejoin:round;stroke-dasharray:none;stroke-opacity:1" width="12" height="8" x="64" y="72"/><rect style="fill:#aeb0be;fill-opacity:1;fill-rule:evenodd;stroke:none;stroke-width:0;stroke-linecap:round;stroke-linejoin:round;stroke-dasharray:none;stroke-opacity:1" width="12" height="8" x="84" y="72"/></g></svg>
